<svg id="Layer_1" data-name="Layer 1" xmlns="http://www.w3.org/2000/svg" viewBox="0 0 69.86 31.09"><title>lenette-icons_ol</title><g id="_8" data-name="8"><path d="M26.11,13.33a5.34,5.34,0,0,1-.42,2.16,4.68,4.68,0,0,1-1.2,1.65,5.4,5.4,0,0,1-1.92,1.06,8.61,8.61,0,0,1-2.59.37,8.44,8.44,0,0,1-1.63-.15A9.54,9.54,0,0,1,17,18.09a5.91,5.91,0,0,1-1-.41,3.63,3.63,0,0,1-.5-.3.9.9,0,0,1-.15-.19.69.69,0,0,1-.09-.23,1.39,1.39,0,0,1-.06-.33,3.25,3.25,0,0,1,0-.47,1.77,1.77,0,0,1,.09-.68.31.31,0,0,1,.28-.18,1.41,1.41,0,0,1,.49.21A7.42,7.42,0,0,0,17,16a10.72,10.72,0,0,0,1.33.46,6.5,6.5,0,0,0,1.71.22,5.14,5.14,0,0,0,1.6-.23,3.34,3.34,0,0,0,1.16-.65,2.64,2.64,0,0,0,.7-1,3.15,3.15,0,0,0,.24-1.24,2.83,2.83,0,0,0-1.18-2.36,4.39,4.39,0,0,0-1.41-.66,7.43,7.43,0,0,0-1.91-.22H17.53a.54.54,0,0,1-.22-.05.39.39,0,0,1-.18-.16A.81.81,0,0,1,17,9.82,1.5,1.5,0,0,1,17,9.36a1.66,1.66,0,0,1,0-.42.67.67,0,0,1,.11-.27.47.47,0,0,1,.17-.15.51.51,0,0,1,.22,0H19a5.21,5.21,0,0,0,1.59-.23,3.65,3.65,0,0,0,1.2-.66,2.94,2.94,0,0,0,.75-1,3.24,3.24,0,0,0,.26-1.34,3,3,0,0,0-.17-1,2.27,2.27,0,0,0-.53-.85,2.33,2.33,0,0,0-.89-.58A3.7,3.7,0,0,0,20,2.56a4.09,4.09,0,0,0-1.43.23,10,10,0,0,0-1.17.51,7.16,7.16,0,0,0-.84.5,1.1,1.1,0,0,1-.47.24.43.43,0,0,1-.17,0,.26.26,0,0,1-.12-.13.88.88,0,0,1-.07-.28c0-.13,0-.28,0-.48s0-.26,0-.36a1.07,1.07,0,0,1,.06-.27,1.89,1.89,0,0,1,.09-.21A2.22,2.22,0,0,1,16,2.05a3.88,3.88,0,0,1,.52-.37,7.13,7.13,0,0,1,1-.48A8.71,8.71,0,0,1,18.82.81,7.45,7.45,0,0,1,20.43.65,6.49,6.49,0,0,1,22.55,1a4.09,4.09,0,0,1,1.53.87A3.69,3.69,0,0,1,25,3.18a4.89,4.89,0,0,1,.3,1.74,5,5,0,0,1-.22,1.53,3.77,3.77,0,0,1-.63,1.25,4,4,0,0,1-1,.93,3.85,3.85,0,0,1-1.4.53v0a4.91,4.91,0,0,1,1.65.45,4.79,4.79,0,0,1,1.28.89,3.87,3.87,0,0,1,.84,1.26A4,4,0,0,1,26.11,13.33Z"/><path d="M40.65,12.67a7.21,7.21,0,0,1-.35,2.22,5.11,5.11,0,0,1-1.08,1.88,5.19,5.19,0,0,1-1.84,1.3,6.44,6.44,0,0,1-2.64.5,6.22,6.22,0,0,1-1.92-.27,4.46,4.46,0,0,1-1.45-.77,4.06,4.06,0,0,1-1-1.22,6.69,6.69,0,0,1-.66-1.66,12,12,0,0,1-.36-2c-.07-.74-.11-1.53-.11-2.37A21.67,21.67,0,0,1,29.33,8a13.3,13.3,0,0,1,.44-2.21,8.75,8.75,0,0,1,.84-2,5.84,5.84,0,0,1,1.33-1.63,6.06,6.06,0,0,1,1.91-1.1,7.64,7.64,0,0,1,2.6-.4,8.68,8.68,0,0,1,1,.06,8,8,0,0,1,.94.16,5.42,5.42,0,0,1,.73.22,1.63,1.63,0,0,1,.39.2.52.52,0,0,1,.14.16.62.62,0,0,1,.07.19,1.37,1.37,0,0,1,0,.23,2.54,2.54,0,0,1,0,.31c0,.16,0,.3,0,.42a.7.7,0,0,1-.05.28.42.42,0,0,1-.12.16.32.32,0,0,1-.2.06A1.1,1.1,0,0,1,39,3l-.62-.21a8.46,8.46,0,0,0-.88-.2,6.22,6.22,0,0,0-1.21-.1A4.3,4.3,0,0,0,34.15,3a4.22,4.22,0,0,0-1.47,1.38,6.17,6.17,0,0,0-.85,2,12.19,12.19,0,0,0-.32,2.38c.24-.14.5-.27.79-.41a8.8,8.8,0,0,1,1-.36,8.69,8.69,0,0,1,1.09-.26,7,7,0,0,1,1.24-.1A6.6,6.6,0,0,1,38,8a4.07,4.07,0,0,1,1.57,1.06,4,4,0,0,1,.85,1.61A7.42,7.42,0,0,1,40.65,12.67Zm-2.34.22a5.66,5.66,0,0,0-.16-1.42,2.48,2.48,0,0,0-.52-1.08,2.29,2.29,0,0,0-1-.69,4.1,4.1,0,0,0-1.5-.24,5.52,5.52,0,0,0-1,.09,5,5,0,0,0-1,.24,6.37,6.37,0,0,0-.89.36,7.25,7.25,0,0,0-.78.45,15.72,15.72,0,0,0,.23,2.91,5.59,5.59,0,0,0,.64,1.87,2.5,2.5,0,0,0,1.06,1A3.4,3.4,0,0,0,35,16.7a3.18,3.18,0,0,0,1.49-.33,3,3,0,0,0,1-.87,3.59,3.59,0,0,0,.61-1.22A5,5,0,0,0,38.31,12.89Z"/><path d="M54.75,9.57a19.52,19.52,0,0,1-.32,3.65,8.29,8.29,0,0,1-1,2.85,5.13,5.13,0,0,1-1.92,1.84,5.88,5.88,0,0,1-2.91.66A5.94,5.94,0,0,1,45.78,18,4.53,4.53,0,0,1,44,16.26a8,8,0,0,1-1-2.8,21.72,21.72,0,0,1-.29-3.81A18.89,18.89,0,0,1,43,6a8.58,8.58,0,0,1,1-2.85A5,5,0,0,1,46,1.3a6.87,6.87,0,0,1,5.68-.07A4.53,4.53,0,0,1,53.48,3a8,8,0,0,1,1,2.8A22.77,22.77,0,0,1,54.75,9.57Zm-2.37.16q0-1.31-.09-2.34A15.47,15.47,0,0,0,52,5.56a6.09,6.09,0,0,0-.47-1.37,3.23,3.23,0,0,0-.69-.94,2.42,2.42,0,0,0-.93-.54,3.77,3.77,0,0,0-1.16-.17,3,3,0,0,0-1.86.54,3.62,3.62,0,0,0-1.12,1.48,7.93,7.93,0,0,0-.56,2.21,23.14,23.14,0,0,0-.14,2.71,22.37,22.37,0,0,0,.2,3.32A7,7,0,0,0,45.92,15,2.91,2.91,0,0,0,47,16.28a3.25,3.25,0,0,0,1.65.39A3.47,3.47,0,0,0,50,16.43a3,3,0,0,0,1-.7,3.9,3.9,0,0,0,.68-1.08,7.67,7.67,0,0,0,.43-1.4,11.51,11.51,0,0,0,.22-1.66Q52.38,10.69,52.38,9.73Z"/><path d="M63.65,3.07a3.05,3.05,0,0,1-.25,1.24,3,3,0,0,1-.69,1A3.31,3.31,0,0,1,61.64,6,3.85,3.85,0,0,1,59,6a3.13,3.13,0,0,1-1-.63,2.86,2.86,0,0,1-.67-1,3.22,3.22,0,0,1-.24-1.26,3.16,3.16,0,0,1,.25-1.27,3,3,0,0,1,.71-1A3.28,3.28,0,0,1,59.11.24,3.52,3.52,0,0,1,60.43,0a3.65,3.65,0,0,1,1.29.23,3.28,3.28,0,0,1,1,.62,2.76,2.76,0,0,1,.67,1A3.13,3.13,0,0,1,63.65,3.07ZM62,3.12a1.91,1.91,0,0,0-.12-.68,1.66,1.66,0,0,0-.34-.54A1.43,1.43,0,0,0,61,1.54a1.71,1.71,0,0,0-.65-.13,1.6,1.6,0,0,0-.62.13,1.63,1.63,0,0,0-.51.36,1.69,1.69,0,0,0-.33.53,1.84,1.84,0,0,0-.12.66,2.09,2.09,0,0,0,.12.72,1.55,1.55,0,0,0,.34.55,1.66,1.66,0,0,0,.53.36,1.75,1.75,0,0,0,.65.12A1.42,1.42,0,0,0,61,4.71a1.52,1.52,0,0,0,.5-.37,1.79,1.79,0,0,0,.33-.55A1.81,1.81,0,0,0,62,3.12Z"/><path d="M59.33,10.43a1.06,1.06,0,0,0-.54,2.06c6.59,1.74,8.94,3.8,8.94,5.14s-2.22,3.29-8.43,5a93.38,93.38,0,0,1-22.21,2.71,1.07,1.07,0,0,0,0,2.14h0a95.74,95.74,0,0,0,22.75-2.79c6.54-1.8,10-4.24,10-7.06C69.86,14,64.14,11.69,59.33,10.43Z"/><path d="M30,21.93a1.07,1.07,0,0,0-1.51,1.51l1.84,1.84a89.3,89.3,0,0,1-19.72-2.65c-6.21-1.71-8.43-3.7-8.43-5s2.35-3.4,8.94-5.14a1.06,1.06,0,0,0-.54-2.06C5.73,11.69,0,14,0,17.63c0,2.82,3.46,5.26,10,7.06a91.37,91.37,0,0,0,20.3,2.72l-1.86,1.86A1.07,1.07,0,0,0,30,30.78l3.67-3.67a1.06,1.06,0,0,0,0-1.51Z"/></g></svg>