<svg id="Layer_1" data-name="Layer 1" xmlns="http://www.w3.org/2000/svg" viewBox="0 0 183.28 153.52"><defs><style>.cls-1{fill:#4a00bf;}</style></defs><title>benefit</title><path class="cls-1" d="M181,64.91a2.54,2.54,0,0,0-.27-5.06c-.73,0-1.47,0-2.2,0h-1.31l-.12-.33c-1.39-3.83-2.69-6-4.64-7.74-5.22-4.67-11.89-7.1-19.84-7.22-9.19-.13-18.54-.09-27.59-.06-4.35,0-8.71,0-13,0h-4.48q-36.25,0-72.5-.06A41.12,41.12,0,0,0,22.76,46C14.09,48.62,9.33,52.8,7.31,59.49l-.11.35H5.87c-.7,0-1.4,0-2.11,0A2.56,2.56,0,1,0,3.69,65c.6,0,1.21,0,1.85,0H6.88l.06.43c0,.17,0,.31.06.43a5,5,0,0,1,.07.71c0,1.78,0,3.55,0,5.32,0,3.73,0,7.58,0,11.36,0,.75,0,1.5,0,2.25a36.5,36.5,0,0,0,.66,8.39c3.47,14.33,17.45,22.6,32.49,19.25a86.54,86.54,0,0,0,14-4.84c8.57-3.56,15.39-7.7,20.86-12.68,4-3.61,8.2-8.16,9.44-14.5a62.31,62.31,0,0,0,.84-9.76c0-.91.06-1.83.1-2.74A2.69,2.69,0,0,1,87.2,65.9a11.57,11.57,0,0,1,4.91-1.14,12,12,0,0,1,4.76,1A3,3,0,0,1,98.81,69l0,1.79A55.27,55.27,0,0,0,99.79,81c1.37,6.28,5.14,11.55,12.22,17.09,7.72,6,17.06,10.69,28.56,14.2,7.55,2.3,14.3,2.1,20.64-.62A25.85,25.85,0,0,0,177.37,87.3V64.93h.5L179,65A15.69,15.69,0,0,0,181,64.91Zm-74-8.82A9.47,9.47,0,0,1,114.22,50a22.6,22.6,0,0,1,3-.24l9.17,0c9.3,0,18.91,0,28.36.18a22.39,22.39,0,0,1,12.89,4.56,11.25,11.25,0,0,1,.95.8l.65.58,1,.88H106.82ZM172.21,62v1.75c0,1.34,0,2.72,0,4.08,0,.55-.7,1-1,1.09a2.33,2.33,0,0,1-.69.08h-66.7l.84-7Zm-157-6.17A19.27,19.27,0,0,1,23.7,51a31.16,31.16,0,0,1,7.71-1.22c8.62-.09,17.38-.07,25.86-.06H68.34A9.85,9.85,0,0,1,77.45,56l.26.68H14.34ZM12.33,62H79.74l.86,6.89H12.33Zm48,37.47-.41.33a3.31,3.31,0,0,1-.65.47c-5.76,3-12.52,6.29-19.85,7.83a28.59,28.59,0,0,1-5.82.63,21.76,21.76,0,0,1-16.87-7.86,10.56,10.56,0,0,1-.66-.9c-.13-.18-.26-.38-.43-.6l-.57-.8H61.51ZM74.52,88.92c-1.51,1.42-3,2.83-4.53,4.24a1.8,1.8,0,0,1-1.17.42h0l-40.66-.11-12.32,0c-3.07,0-3.3-.22-3.58-3.24a19.46,19.46,0,0,1,0-2.17c0-.34,0-.69,0-1v-.5H75.36l.77.93ZM79.4,81.3H12.29V74.17H80.7ZM99.18,61.09l-.46-.18a17.44,17.44,0,0,0-13.09,0l-.45.18L80.39,49.78H104Zm5.91,20.12-1.42-7h68.47v7Zm63.69,18.16a21.32,21.32,0,0,1-5.48,5.43,22.77,22.77,0,0,1-12.8,4,26.29,26.29,0,0,1-6.35-.82,82.28,82.28,0,0,1-19.2-7.8,4.45,4.45,0,0,1-.51-.34l-1.76-1.22h46.69ZM172.33,87c-.05.47-.09.94-.13,1.39-.11,1.29-.21,2.51-.41,3.73-.1.59-.79.94-1.34,1.22a1.42,1.42,0,0,1-.66.15h-.31l-.25,0H158.9q-21.1,0-42.2,0h0a4.54,4.54,0,0,1-3.54-1.34c-1-1.06-2.06-2.11-3.09-3.17l-1.58-1.6.58-.92h63.32Z"/><path class="cls-1" d="M12.33,1.94a10.32,10.32,0,0,0-.16,1.17c0,.21,0,.42-.07.62A9.6,9.6,0,0,1,4.59,12a9.88,9.88,0,0,1-1.29.16c-.34,0-.69.06-1,.11a2.53,2.53,0,0,0,.24,5c5.91.58,9,3.61,9.72,9.52a3,3,0,0,0,.9,2,4.22,4.22,0,0,0,2.76.39c.31-.08,1.24-.29,1.42-2.34.48-5.56,3.93-9.12,9.22-9.53,1.09-.08,2.94-.52,3-2.49.06-1.46-1-2.45-3-2.71A12.31,12.31,0,0,1,23,11.26c-3.47-1.61-5.39-4.5-5.7-8.59C17.16.94,16.27,0,14.79,0h-.07A2.43,2.43,0,0,0,12.33,1.94Zm2.39,9.37L17.9,15,14.62,18l-3.16-3.49Z"/><path class="cls-1" d="M58.46,153.52a3.24,3.24,0,0,0,2.21-1.09c.79-.81,1.54-1.67,2.34-2.59l1.15-1.31.36-.4.37.39,1.32,1.4c.83.89,1.56,1.67,2.32,2.43a3.44,3.44,0,0,0,2.35,1.16h0a2.36,2.36,0,0,0,1.68-.76,2.38,2.38,0,0,0,.75-1.7,3.42,3.42,0,0,0-1.2-2.33c-.79-.76-1.63-1.48-2.52-2.24l-1.28-1.11-.42-.36.4-.38,1.48-1.4c1-.9,1.79-1.67,2.58-2.48a2.57,2.57,0,0,0,.19-3.82c-1.09-1.07-2.59-1-3.82.25-.83.82-1.63,1.69-2.41,2.53l-1,1.12-.25.27-.66-.31a1,1,0,0,1-.28-.17l-1.22-1.21-2.19-2.15a3.28,3.28,0,0,0-2.24-1A2.51,2.51,0,0,0,56,138.67a3.21,3.21,0,0,0,1.08,2.21c.81.79,1.68,1.54,2.59,2.34l1.3,1.13.41.37-.39.37-1.43,1.35c-.92.87-1.72,1.62-2.5,2.4A3.3,3.3,0,0,0,56,151.08a2.57,2.57,0,0,0,2.47,2.44Z"/><path class="cls-1" d="M168.06,30.21c1.78,0,2.85-1,2.86-2.53s-1.08-2.5-2.85-2.57c-.57,0-1.15,0-1.75,0H165l-.05-.45c-.06-.54-.06-1.12-.07-1.67,0-1.36,0-2.63-.72-3.3a2.71,2.71,0,0,0-2.05-.54c-2.29.08-2.4,1.4-2.39,3.72a16,16,0,0,1-.07,1.83l0,.44h-1.51a15.76,15.76,0,0,0-2.07,0,2.53,2.53,0,0,0-2.41,2.56,2.57,2.57,0,0,0,2.62,2.49c.65,0,1.29,0,2,0h1.53v1.47c0,.64,0,1.22,0,1.8,0,1.72,1.05,2.87,2.53,2.87h0a2.63,2.63,0,0,0,2.6-2.85c0-.61,0-1.22,0-1.85V30.21h3.2Z"/><path class="cls-1" d="M95.67,120.43a2.58,2.58,0,0,0,2.59,2.51,2.49,2.49,0,0,0,2.53-2.54,2.46,2.46,0,0,0-.72-1.77,2.6,2.6,0,0,0-1.83-.74h0a2.64,2.64,0,0,0-1.84.79A2.44,2.44,0,0,0,95.67,120.43Z"/><path class="cls-1" d="M160.85,144.36a2.56,2.56,0,1,0,1.84-4.36h0a2.62,2.62,0,0,0-2.57,2.5A2.57,2.57,0,0,0,160.85,144.36Z"/><path class="cls-1" d="M13.94,143.58a2.54,2.54,0,0,0,1.81.75,2.69,2.69,0,0,0,1.82-.72,2.52,2.52,0,0,0,.72-1.79,2.44,2.44,0,0,0-2.5-2.54h0a2.48,2.48,0,0,0-2.54,2.5A2.54,2.54,0,0,0,13.94,143.58Z"/></svg>