<?xml version="1.0" encoding="utf-8"?>
<!-- Generator: Adobe Illustrator 24.0.0, SVG Export Plug-In . SVG Version: 6.00 Build 0)  -->
<svg version="1.1" id="Layer_1" xmlns="http://www.w3.org/2000/svg" xmlns:xlink="http://www.w3.org/1999/xlink" x="0px" y="0px"
	 viewBox="0 0 210.8 111.3" style="enable-background:new 0 0 210.8 111.3;" xml:space="preserve">
<style type="text/css">
	.st0{fill:#4A00BF;}
</style>
<title>benefit</title>
<g>
	<path class="st0" d="M94.2,89.1h52.1l0.2,0.7c1.8,8.2,9,14.1,17.3,14.2c8.3,0.2,14-4.4,18-14.3L182,89h3.9c2.5,0,5,0,7.6,0
		c2.2,0,3.4-1.1,3.4-3.2c0-1.6,0-3.4,0-5c0.1-6.2,0.1-12.5-0.2-18.8c-0.3-5.8-3.6-10-9.4-12.3c-1-0.3-1.9-0.6-2.9-0.8
		c-0.5-0.1-1-0.2-1.5-0.4l-0.7-0.2v-0.7c0-0.6,0-1.3,0-1.8c0-1.3,0-2.7,0-4c-0.2-7.7-6.4-14-14.2-14.1c-5.1-0.1-10.2-0.1-15.2,0
		h-3.3c-2.1,0-3.3,1.1-3.4,3.2c0,0.5,0,0.9,0,1.3v50.5h-11.3V63.2c0-13.3,0-26.7,0-40c0-9.7-6.1-15.9-15.8-15.9H87.7
		c-9.7,0-19.3,0-29.1,0c-8,0-13.9,5-14.9,12.8c-0.2,1.6-0.2,3.3-0.1,4.9c0,0.9,0.1,1.6,0.1,2.5v0.9h-2.4c-1.1,0-1.9,0-2.8,0
		c-1.6,0-3,1.3-3,3v0.1c0,1.6,1.3,3,2.9,3c0.1,0,0.1,0,0.2,0c10.4,0,21.8,0,35.7,0c1.3,0.1,2.5-0.8,2.9-2c0.6-1.1,0.2-2.4-0.7-3.1
		c-0.9-0.6-1.9-1-3-1c-5.3-0.1-10.6-0.1-15.8-0.1h-8v-0.9c0-0.8,0-1.5,0-2.3c-0.1-1.5,0-3.2,0.1-4.7c0.4-4.1,4.2-7,9-7
		c20.1,0,40.3,0,60.5,0c6.1,0,9.5,3.5,9.5,9.5c0,19.1,0,38.1,0,57.2c0,0.4,0,0.8,0,1.3l-0.1,1.4h-9.6c-7.4,0-15.1,0-22.7,0l0,0
		c-1.4,0.2-2.7-0.9-2.9-2.2C91.1,72.7,83.2,67.1,75.2,68c-8.1,0.9-13.8,5.4-16.2,13.3c-0.2,0.8-0.9,1.3-1.6,1.5
		c-1.7,0.1-3.4,0.1-5.1,0.1h-2.5V63.3h2.6c2.1,0,3.6-1.3,3.6-3.1c0-1.7-1.4-3.1-3.6-3.1c-13.5,0-24.5,0-34.9,0
		c-0.8,0-1.5,0.3-2.2,0.7c-1.1,0.7-1.5,2-1.2,3.2c0.4,1.4,1.7,2.4,3.3,2.3c5.2,0,10.4,0,15.6,0h10.6v8.4c0,4.4,0,8.9,0,13.4
		c0,3.1,1,4,3.9,4h11l0.2,0.7c2.8,10.3,11.2,14.2,17.3,14.2c8.3,0.2,14-4.3,18-14.3L94.2,89.1z M152.3,33.8h10.1c1.6,0,3.5,0,5.1,0
		c5.1,0.1,8.5,3.5,8.5,8.6c0,1.7,0,3.5,0,5.2c0,1.1,0,2.1,0,3.2c0,1.5,0.3,2.6,1,3.2c0.6,0.6,1.7,0.9,3.3,0.9c2.4,0,5.1,0,7.4,1.9
		c2,1.6,3.2,4,3.1,6.5c0.1,4.4,0,9,0,13.4v4.6c0,0.2-0.1,0.4-0.1,0.6c0,0.1-0.1,0.2-0.1,0.3l-0.2,0.7h-3.9c-1.2,0-2.3,0-3.5-0.1
		c-1,0-1.5-1.3-1.7-1.7c-2.4-7.6-7.4-11.8-15.4-12.9c-3.9-0.5-7.7,0.4-11,2.4l-0.8,0.5l-1.8,1.2L152.3,33.8z M164.3,74.1
		c3.2,0.1,6.3,1.4,8.5,3.8c2.1,2.2,3.3,5.2,3.2,8.3c-0.2,6.4-5.3,11.5-11.6,11.6H164c-3.3-0.1-6.4-1.4-8.6-3.9
		c-2.1-2.2-3.3-5.3-3.2-8.4C152.5,79.1,157.8,74,164.3,74.1z M84.5,94.5c-2.1,2.1-5,3.4-8,3.4h-0.2c-6.5-0.2-11.6-5.7-11.5-12.2
		c0.2-6.3,5.3-11.4,11.6-11.5c6.5,0,11.8,5.3,11.8,11.8C88.1,89.1,86.8,92.2,84.5,94.5L84.5,94.5z"/>
	<path class="st0" d="M63.1,42.7h-35c-0.3,0-0.5,0-0.8,0c-1.6,0.2-2.9,1.7-2.6,3.5c0.1,0.6,0.3,1.2,0.7,1.6c0.7,0.7,1.7,1.1,2.7,1
		c4,0,8.2,0,12.2,0h12c3.6,0,7.2,0,10.8,0c1,0.1,1.9-0.3,2.7-1c0.6-0.6,0.8-1.4,0.7-2.2C66.4,43.8,65.2,42.8,63.1,42.7z"/>
</g>
</svg>
