<svg id="Layer_1" data-name="Layer 1" xmlns="http://www.w3.org/2000/svg" viewBox="0 0 139 138.93"><defs><style>.cls-1{fill:#4a00bf;}</style></defs><title>benefit</title><path class="cls-1" d="M138.51,108.05a38.19,38.19,0,0,0-8-18.34c-2.3-2.82-4.49-4.26-7.09-4.66-2.86-.44-5.73-.85-8.59-1.26s-5.45-.78-8.18-1.2a4,4,0,0,1-2.08-1c-2.72-2.66-5.44-5.39-8.08-8l-2-2c-.16-.17-.31-.34-.49-.56l-.62-.71.38-.31.37-.29a7.2,7.2,0,0,0,.58-.5l2.27-2.27Q112.35,51.45,127.76,36a5,5,0,0,0,1.38-2.13c2.27-8.6,4.54-17.44,6.75-26.26a2.88,2.88,0,0,0-.6-2.83,3.07,3.07,0,0,0-3-.66L128.68,5q-11.06,2.64-22.11,5.26a6,6,0,0,0-3,1.69Q90,25.53,76.37,39.13L70.51,45l-.68.65-.6.58-2.65-2.63c-3.23-3.2-6.4-6.35-9.56-9.52a2.33,2.33,0,0,1-.61-1.29L56,29.71c-.59-4-1.2-8.12-1.7-12.2-.38-3.14-1.26-5.27-2.86-6.92a27.6,27.6,0,0,0-4.26-3.77,39.91,39.91,0,0,0-18-6.58A25.9,25.9,0,0,0,14.08,2.56c-1.39.69-2,1.48-2.07,2.63s.52,2.1,2,3L15.42,9c2.17,1.28,4.41,2.61,6.56,4a45,45,0,0,1,5,3.68,5.37,5.37,0,0,1,1.84,5.73,13.14,13.14,0,0,1-6.29,8.43,6.72,6.72,0,0,1-7.31-.14c-2.86-1.83-5.86-3.59-8.75-5.28l-1.9-1.12a3.13,3.13,0,0,0-3.14-.26A3.13,3.13,0,0,0,0,26.86c0,2-.06,4.3,0,6.5A3.56,3.56,0,0,0,.59,35.3C4.9,40.75,9.24,46.16,13.51,51.37a7.78,7.78,0,0,0,7,3.1,91,91,0,0,1,10.32.21l3.35.18a3.31,3.31,0,0,1,2,.86c2.87,2.82,5.75,5.71,8.54,8.52l2.12,2.13c.17.17.32.34.53.57l.72.79-.42.31c-.13.1-.26.18-.38.26a5.13,5.13,0,0,0-.58.44Q37.17,78.3,27.62,87.86l-5.32,5.3c-4.65,4.63-9.46,9.41-14.08,14.22A13.51,13.51,0,0,0,8,125.65a77.85,77.85,0,0,0,5.74,5.77,13.41,13.41,0,0,0,11.46,3.4,14.63,14.63,0,0,0,8.4-4.63L55.5,108.3l13.94-14c.53-.53,1-1.08,1.55-1.63l1-1.12L74.49,94c3.11,3.09,6.15,6.11,9.18,9.14a2,2,0,0,1,.47,1.27c0,1.33.12,2.66.18,4,.18,3.44.36,7,.21,10.5a7.2,7.2,0,0,0,2.38,5.83l.4.42a11,11,0,0,0,1,1c5.17,4.15,10.23,8.21,15.29,12.2a3,3,0,0,0,1.58.53c2.28.06,4.61,0,6.87,0h.59a2.39,2.39,0,0,0,.95-.22,2.6,2.6,0,0,0,1.53-1.57,3.2,3.2,0,0,0-.43-2.63l-1-1.73c-1.74-3-3.54-6.08-5.4-9-1.58-2.52-1.53-5.08.13-7.84a13.27,13.27,0,0,1,5.53-4.73c3.93-2,6.72-1.46,9.32,2,1.34,1.75,2.53,3.64,3.68,5.47l.81,1.28c.55.86,1.07,1.74,1.59,2.62.64,1.07,1.29,2.18,2,3.23a2.77,2.77,0,0,0,2.2,1.32,2.83,2.83,0,0,0,2.33-1.2,9.16,9.16,0,0,0,1-1.86A27.09,27.09,0,0,0,138.51,108.05Zm-9.09-97.58L125,27.72l-13.11-13ZM48,59.55q-4.41-4.39-8.81-8.82A4.27,4.27,0,0,0,36,49.32C31,49.2,25.6,49,19.56,48.78a2.6,2.6,0,0,1-1.71-.89c-2.86-3.41-6-7.15-9.75-11.78-.6-.73-1.17-1.5-1.71-2.24-.25-.35-.51-.69-.76-1l-.25-.32.77-.78.31.19L8.29,33c1.33.77,2.7,1.57,4,2.42a11.83,11.83,0,0,0,13,.3A17.92,17.92,0,0,0,34.48,22c.54-4-1.16-7.54-5.06-10.61-1.31-1-2.74-2-4.12-2.87-.64-.42-1.28-.84-1.91-1.27L21.57,6l1.11-.22a21.55,21.55,0,0,1,8.78.39A34.62,34.62,0,0,1,44.81,12a9,9,0,0,1,4,6.79c.35,3.45.87,7,1.37,10.33.27,1.88.55,3.75.8,5.62A4.43,4.43,0,0,0,52.4,37.4q3.36,3.32,6.68,6.64l4.85,4.83a3.33,3.33,0,0,0,.63.47l.3.21.44.32-4.92,4.94-.6-.56-.63-.61L55.53,50c-2.51-2.51-5-5-7.54-7.53a3.19,3.19,0,0,0-2.63-1,2.72,2.72,0,0,0-2,1.36,2.93,2.93,0,0,0,.7,3.63q4.59,4.63,9.23,9.22c.64.64,1.33,1.26,2,1.86l.91.82.36.33-4.67,4.7-.59-.55c-.21-.19-.43-.4-.64-.61Zm-15.8,64.17c-.37.36-.73.74-1.09,1.12-.82.85-1.66,1.73-2.57,2.54a8.47,8.47,0,0,1-11.16-.18c-1.69-1.58-3.36-3.26-5-5a8.18,8.18,0,0,1-.19-11c.81-.93,1.71-1.79,2.59-2.62.39-.38.79-.75,1.17-1.13l.33-.33L32.5,123.38ZM36.54,119l-15.89-16,85.63-85.6,15.89,15.8Zm96.89-3v.36l-1,.27L132,116c-.17-.27-.35-.55-.54-.81-.49-.69-1-1.4-1.44-2.1a45.58,45.58,0,0,0-3.37-4.57c-3.69-4.16-8.17-5.23-13.34-3.17-5.67,2.26-9.25,5.66-11,10.41a11.44,11.44,0,0,0,1,10.49c.89,1.41,1.73,2.85,2.62,4.37.41.71.84,1.43,1.29,2.18l.81,1.37-1.43-.7-.44-.21a2.33,2.33,0,0,1-.59-.32l-6-4.9-8.41-6.84a2.73,2.73,0,0,1-1-2.31c-.15-6.14-.29-11.26-.57-16.57A4.14,4.14,0,0,0,88.34,100c-2.9-3-5.78-5.86-8.83-8.9l-3.4-3.38,4.65-4.48.55.51c.2.18.42.38.63.59l4.22,4.23,6.59,6.6a2.8,2.8,0,0,0,4.87-1.36A2.91,2.91,0,0,0,96.54,91l-4.88-4.87L86,80.48c-.21-.2-.44-.39-.62-.53l-.6-.5,4.92-5.08,2.11,2.2c1.34,1.4,2.67,2.79,4,4.18l.57.58c1.77,1.81,3.6,3.67,5.47,5.42a4.16,4.16,0,0,0,2.09,1.07c3.43.53,6.88,1,10.32,1.5l8.2,1.18a3.67,3.67,0,0,1,2,1l.65.71a24.31,24.31,0,0,1,3.23,4A35.11,35.11,0,0,1,133.43,113c0,.71,0,1.42,0,2.12C133.44,115.39,133.43,115.71,133.43,116Z"/><path class="cls-1" d="M37.32,98.31c-.83.83-1.7,1.69-2.51,2.57a2.64,2.64,0,0,0-.49,3,3.51,3.51,0,0,0,2.61,1.91c.2-.12.41-.23.62-.34a7.23,7.23,0,0,0,1.48-1c1.35-1.27,2.68-2.62,4-3.92L44.57,99,99.8,43.75c2-2,3.93-3.94,5.87-5.93a2.5,2.5,0,0,0,.58-2.89,2.61,2.61,0,0,0-2.45-1.68h-.19c-1.09,0-1.88.7-2.79,1.62L54.69,81Z"/></svg>