<svg id="Layer_1" data-name="Layer 1" xmlns="http://www.w3.org/2000/svg" viewBox="0 0 210.84 111.33"><defs><style>.cls-1{fill:#4a00bf;}</style></defs><title>benefit</title><path class="cls-1" d="M92.56,94.2h60l.18.77a20.88,20.88,0,0,0,20,16.35c9.51.2,16.1-5.06,20.73-16.58l.25-.63h4.41q4.35,0,8.73,0c2.56,0,3.87-1.25,3.88-3.63,0-1.94,0-3.88,0-5.82.07-7.11.14-14.46-.22-21.65-.34-6.68-4.1-11.58-10.88-14.15a28.29,28.29,0,0,0-3.33-.93q-.87-.2-1.74-.42l-.75-.2v-.77c0-.7,0-1.41,0-2.13,0-1.52,0-3.09,0-4.63a16.59,16.59,0,0,0-16.3-16.25c-5.84-.1-11.78-.07-17.52,0h-3.73c-2.44,0-3.75,1.26-3.91,3.69,0,.51,0,1,0,1.54V87h-13V64.35q0-23,0-46.09C139.37,7,132.4,0,121.17,0H85Q68.26,0,51.48,0c-9.22,0-16,5.81-17.23,14.75a33.09,33.09,0,0,0-.11,5.66c0,.95.06,1.92.06,2.9v1H31.46c-1.17,0-2.18,0-3.2,0a3.45,3.45,0,0,0-3.45,3.56,3.39,3.39,0,0,0,3.51,3.44c12,0,25.07,0,41.2,0a3.27,3.27,0,0,0,3.31-2.29A2.88,2.88,0,0,0,72,25.45a6.31,6.31,0,0,0-3.43-1.08c-6.06-.08-12.23-.07-18.2-.06H41.19v-1c0-.9,0-1.77,0-2.63a49.77,49.77,0,0,1,.08-5.48c.42-4.72,4.83-8.14,10.48-8.14q34.85,0,69.7,0c7,0,11,4,11,11q0,33,0,65.9c0,.46,0,.93-.05,1.43l-.08,1.71h-11.1c-8.56,0-17.42,0-26.13,0h0a3.05,3.05,0,0,1-3.37-2.57C89,75.46,79.71,69,70.56,70c-9.37,1-15.83,6.26-18.69,15.34a2.5,2.5,0,0,1-1.93,1.73c-1.92.07-3.8.06-5.79,0H41.26V64.42h3c2.44,0,4.07-1.46,4.07-3.51s-1.67-3.53-4.06-3.53c-15.49,0-28.28,0-40.25,0a5.36,5.36,0,0,0-2.54.73A3.19,3.19,0,0,0,.14,61.79a3.43,3.43,0,0,0,3.73,2.62q9,0,18,0H34.06V74.1q0,7.68,0,15.37c0,3.55,1.07,4.64,4.59,4.64H51.3l.2.73c3.25,11.88,12.83,16.3,20,16.47,9.49.22,16.08-5,20.77-16.5Zm66.92-63.64h11.63c1.94,0,3.95,0,5.93,0,5.88.13,9.71,4,9.77,9.88,0,2,0,4,0,6,0,1.23,0,2.47,0,3.7,0,1.77.36,3,1.06,3.67s2,1,3.76,1c2.74,0,5.84,0,8.53,2.18a9.54,9.54,0,0,1,3.58,7.56c.06,5.13,0,10.34,0,15.38v5.33a2.17,2.17,0,0,1-.14.69c0,.09-.06.21-.1.35l-.2.74h-4.46c-1.33,0-2.68,0-4-.08-1.1,0-1.78-1.45-2-2-2.78-8.8-8.59-13.69-17.74-14.92a19.48,19.48,0,0,0-12.63,2.78l-.9.54-2.16,1.31ZM173.27,77A13.79,13.79,0,0,1,183,81.35a13.22,13.22,0,0,1,3.64,9.56,13.74,13.74,0,0,1-13.47,13.4h-.29a14,14,0,0,1-9.84-4.43,13.22,13.22,0,0,1-3.66-9.65A13.7,13.7,0,0,1,173.27,77Zm-92,23.48a13.2,13.2,0,0,1-9.25,3.85h-.26A13.67,13.67,0,0,1,71.87,77,13.71,13.71,0,0,1,85.5,90.66,13.9,13.9,0,0,1,81.3,100.46Z"/><path class="cls-1" d="M56.72,40.89H16.29a7.86,7.86,0,0,0-.84,0,3.52,3.52,0,0,0-2.22,5.78,4.13,4.13,0,0,0,3.09,1.13c4.7,0,9.41,0,14.12,0H44.31q6.21,0,12.42,0a4.11,4.11,0,0,0,3.06-1.11,3.42,3.42,0,0,0,.83-2.6C60.51,42.07,59.09,40.9,56.72,40.89Z"/></svg>