<svg id="Layer_1" data-name="Layer 1" xmlns="http://www.w3.org/2000/svg" viewBox="0 0 55 47.44"><title>lenette-icons_ol</title><path d="M51.1,29.33a1.22,1.22,0,0,0-.52-.71L30.14,15.46,50.58,2.3A1.25,1.25,0,0,0,49.23.2L27.83,14,6.44.2A1.25,1.25,0,0,0,5.08,2.3L25.52,15.46,5.76,28.18a10.12,10.12,0,0,0,4.49,19.26,10.22,10.22,0,0,0,10.16-8.9H34.59A10.24,10.24,0,1,0,51.1,29.33Zm-7.35-2.14A10.21,10.21,0,0,0,34.59,36H20.41a10.2,10.2,0,0,0-8.62-8.77L27.83,17ZM10.25,44.94A7.71,7.71,0,0,1,2.5,37.29,7.6,7.6,0,0,1,6,30.88a1.24,1.24,0,0,0,.4-.16L7,30.36a7.67,7.67,0,1,1,3.25,14.58Zm34.5,0a7.65,7.65,0,1,1,7.75-7.65A7.71,7.71,0,0,1,44.75,44.94Z"/></svg>