<svg id="Layer_1" data-name="Layer 1" xmlns="http://www.w3.org/2000/svg" viewBox="0 0 55 52.83"><title>lenette-icons_ol</title><path d="M53.75,19.61H1.25a1.25,1.25,0,0,0,0,2.5h52.5a1.25,1.25,0,0,0,0-2.5Z"/><path d="M1.25,2.5h52.5a1.25,1.25,0,0,0,0-2.5H1.25a1.25,1.25,0,0,0,0,2.5Z"/><path d="M44.75,32.54a10.22,10.22,0,0,0-10.16,8.9H20.41a10.14,10.14,0,1,0,0,2.5H34.59a10.24,10.24,0,1,0,10.16-11.4ZM10.25,50.33A7.65,7.65,0,1,1,18,42.69,7.71,7.71,0,0,1,10.25,50.33Zm34.5,0a7.65,7.65,0,1,1,7.75-7.64A7.71,7.71,0,0,1,44.75,50.33Z"/></svg>