<svg xmlns="http://www.w3.org/2000/svg" viewBox="0 0 50 50"><title>lenette-icons_ol</title><g id="Layer_2" data-name="Layer 2"><path d="M24.83,41.15a1.28,1.28,0,0,1-1.07-.57c-.54-.77-13.08-19-13.08-26.43a14.15,14.15,0,0,1,28.3,0c0,7.42-12.55,25.66-13.08,26.43A1.31,1.31,0,0,1,24.83,41.15Zm0-38.55A11.56,11.56,0,0,0,13.28,14.15c0,5,7.54,17.36,11.55,23.37,4-6,11.54-18.38,11.54-23.37A11.56,11.56,0,0,0,24.83,2.6Z"/><path d="M47.37,50H2.63A1.31,1.31,0,0,1,1.4,48.27l5-14.58a1.3,1.3,0,0,1,1.23-.88h9a1.31,1.31,0,0,1,0,2.61H8.57l-4.12,12h41.1l-4.12-12H33.35a1.31,1.31,0,0,1,0-2.61h9a1.3,1.3,0,0,1,1.23.88l5,14.58A1.31,1.31,0,0,1,47.37,50Z"/><path d="M24.83,21.88a7.56,7.56,0,1,1,7.55-7.56A7.57,7.57,0,0,1,24.83,21.88Zm0-12.5a4.95,4.95,0,1,0,4.94,4.94A4.95,4.95,0,0,0,24.83,9.38Z"/></g></svg>