<svg xmlns="http://www.w3.org/2000/svg" viewBox="0 0 37.77 48"><title>lenette-icons_ol</title><g id="Layer_2" data-name="Layer 2"><path d="M18.72,39.5a1.24,1.24,0,0,1-1-.54C17.18,38.22,5.14,20.7,5.14,13.58a13.58,13.58,0,0,1,27.16,0c0,7.12-12,24.64-12.55,25.38A1.26,1.26,0,0,1,18.72,39.5Zm0-37A11.09,11.09,0,0,0,7.64,13.58c0,4.8,7.24,16.67,11.08,22.44C22.56,30.25,29.8,18.38,29.8,13.58A11.09,11.09,0,0,0,18.72,2.5Z"/><path d="M36.52,48H1.25a1.29,1.29,0,0,1-1-.52,1.28,1.28,0,0,1-.16-1.14l4.81-14a1.25,1.25,0,0,1,1.18-.84h4.81a1.25,1.25,0,0,1,0,2.5H7L3,45.5H34.77l-4-11.5H26.9a1.25,1.25,0,0,1,0-2.5h4.81a1.24,1.24,0,0,1,1.18.84l4.81,14A1.24,1.24,0,0,1,36.52,48Z"/><path d="M18.72,21A7.25,7.25,0,1,1,26,13.75,7.26,7.26,0,0,1,18.72,21Zm0-12a4.75,4.75,0,1,0,4.75,4.75A4.75,4.75,0,0,0,18.72,9Z"/></g></svg>