<svg id="Layer_1" data-name="Layer 1" xmlns="http://www.w3.org/2000/svg" viewBox="0 0 58.18 28.58"><defs><style>.cls-1,.cls-2{fill:none;stroke:#000;stroke-miterlimit:10;}.cls-1{stroke-linecap:round;}</style></defs><title>nav-glasses</title><polyline class="cls-1" points="5.5 14.18 18.07 0.73 21.5 4.33"/><path d="M13.31,25.89C5.57,31.83-3.26,23,2.69,15.27,10.43,9.32,19.26,18.15,13.31,25.89Zm-.92-9.7C6,11.28-1.3,18.57,3.61,25,10,29.88,17.3,22.59,12.39,16.19Z"/><path d="M38.43,25.88c-7.73,6-16.58-2.85-10.65-10.6C35.51,9.32,44.36,18.13,38.43,25.88Zm-1-9.7c-6.4-4.9-13.68,2.41-8.75,8.8C35.13,29.88,42.41,22.57,37.48,16.18Z"/><path d="M38.86,26.5c-8.45,6.38-18-3.17-11.7-11.65a1.14,1.14,0,0,1,.19-.19c8.45-6.38,18,3.17,11.7,11.65A1.7,1.7,0,0,1,38.86,26.5ZM38,15.62c-7.22-5.53-15.43,2.72-9.87,9.92C35.39,31.07,43.6,22.82,38,15.62Z"/><path d="M13.74,26.51C5.28,32.87-4.3,23.3,2.07,14.84a.86.86,0,0,1,.19-.19c8.46-6.37,18,3.21,11.67,11.67A.86.86,0,0,1,13.74,26.51ZM13,15.63c-7.21-5.54-15.44,2.69-9.9,9.9C10.26,31.07,18.49,22.84,13,15.63Z"/><path class="cls-2" d="M15.34,21.56c0-3.4,2.34-6.15,5.23-6.15s5.23,2.75,5.23,6.15"/><polyline class="cls-1" points="40.72 20.42 53.99 3.1 57.68 6.79"/></svg>