<svg id="Layer_1" data-name="Layer 1" xmlns="http://www.w3.org/2000/svg" viewBox="0 0 432 182.08"><title>nav-glasses-icon</title><path d="M432,66.16v8.13H418.71c.27,7.51,1,14.6.69,21.65-1.48,38.58-29.26,73.3-66.7,82.69-36.1,9.06-67.39-.24-92-28-20.82-23.46-27.08-51.49-19.27-81.87,2.56-10-.83-16.75-7.18-22.78-14.88-14.1-40.06-6.25-44.74,13.73a10.37,10.37,0,0,0,.19,5.07c6.68,22.8,5.17,45-5.34,66.3-11.84,24-30.75,40.13-56.58,47.3-29.8,8.27-57.34,2.72-81.55-16.51-18.3-14.53-29.65-33.71-32.74-57-1.31-9.84-.66-20-.92-30.36H0V66.16c3.9,0,7.75-.21,11.57.06,3.12.22,4.51-.81,5.57-3.87C25.56,38,41.38,20.18,64.64,9.07A87.36,87.36,0,0,1,102.51.48Q212.08.21,321.65,0c18.66,0,36.68,3.09,53,12.88,19.2,11.48,32.43,27.85,39.88,48.82,1.31,3.68,2.91,4.9,6.62,4.53C424.65,65.89,428.16,66.16,432,66.16ZM141.23,8.31a97,97,0,0,1,42.74,42c13.11-24.77,49-27.35,63.44-1.3,6.12-7.59,11.77-16.16,19-23.1s15.87-12.07,23.37-17.61Z"/></svg>