<svg id="Layer_1" data-name="Layer 1" xmlns="http://www.w3.org/2000/svg" viewBox="0 0 58.21 27.37"><defs><style>.cls-1,.cls-4{fill:none;stroke:#000;stroke-linecap:round;}.cls-1{stroke-miterlimit:10;}.cls-2{opacity:0.8;}.cls-3{fill:#d100ae;}.cls-4{stroke-linejoin:round;}</style></defs><title>nav-glasses</title><path class="cls-1" d="M.5,18.63,16.55,1.18a2.14,2.14,0,0,1,3.12,0l1.86,2"/><g class="cls-2"><path class="cls-3" d="M8,27.37a8,8,0,1,1,8-8A8,8,0,0,1,8,27.37Z"/></g><g class="cls-2"><path class="cls-3" d="M33.16,27.37a8,8,0,1,1,8-8A8,8,0,0,1,33.16,27.37Z"/></g><path class="cls-4" d="M15.38,20.35c0-3.4,2.34-6.15,5.23-6.15s5.23,2.75,5.23,6.15"/><path class="cls-1" d="M40.75,19.21l12-15.68a1.83,1.83,0,0,1,2.73-.18l2.22,2.23"/></svg>