<svg id="Layer_1" data-name="Layer 1" xmlns="http://www.w3.org/2000/svg" viewBox="0 0 432 171.81"><title>nav-glasses-icon</title><path d="M22,83.26H0V56.11c5.29,0,10.42-.15,15.53,0,2.63.11,4-.76,5.12-3.18C34.56,23.74,57.61,5.69,89.5,1.13,126.44-4.16,156.08,9.71,178,39.88c1.55,2.13,2.89,4.41,4.48,6.85,22.2-17.24,44.48-17.08,66.37-.6,5.72-6.87,11-14.31,17.4-20.72,30.1-30.37,81-33.91,115.46-8.49A93.57,93.57,0,0,1,412,53.75,4.9,4.9,0,0,0,415.57,56c5.37.25,10.77.1,16.43.1V83.28H410c1.61,28.44-7.94,52-29.46,70-16.37,13.74-35.62,19.54-57,18.34-39.92-2.23-78.87-37.32-75.51-88.13l-9.45-.43c-3.71-15-11.7-22.44-23.18-21.85-9.26.47-20.07,6.55-21.63,22h-9.63c1.28,31.22-9.92,56.32-35.27,74.33C132.78,169,114.55,173.17,95,171.43,53.65,167.75,18.5,130.57,22,83.26Zm8.31-.42C30.16,85,30,86.23,30,87.47c-2.15,45.41,38.11,81.77,83.45,75.35,36.53-5.17,63.85-37.53,62.57-74.12-.19-5.41-.2-5.59-5.66-5.36-3.19.13-4.46-.72-5-4.13-4.86-29-30.87-51.34-60.29-52-29.64-.71-54.62,17.71-63.4,47C39.92,79.7,39.35,86,30.34,82.84Zm371,.14c-7.55,2.44-9.17-1.88-10.82-8-7.26-27.14-31.16-46.59-57.82-47.77C302,25.84,275.56,45.13,267.53,74.74c-.72,2.65-.37,6.41-2,7.74-1.84,1.47-5.45.72-8.28,1-.22,0-.42.24-.62.38-3.11,23.91,7.54,50.82,31.61,67.4s56.94,16.65,81.29.22C395.22,134.09,404.49,105.13,401.34,83Z"/></svg>