<svg id="Layer_1" data-name="Layer 1" xmlns="http://www.w3.org/2000/svg" viewBox="0 0 34.5 51.5"><title>lenette-icons_ol</title><path d="M33.25,14H26.5V9.25A9.25,9.25,0,0,0,8,9.25V14H1.25A1.25,1.25,0,0,0,0,15.25V47.42A4.08,4.08,0,0,0,4.08,51.5H30.42a4.08,4.08,0,0,0,4.08-4.08V15.25A1.25,1.25,0,0,0,33.25,14ZM10.5,9.25a6.75,6.75,0,0,1,13.5,0V14H10.5ZM32,47.42A1.58,1.58,0,0,1,30.42,49H4.08A1.58,1.58,0,0,1,2.5,47.42V16.5H8v6.75a1.25,1.25,0,0,0,2.5,0V16.5H24v6.75a1.25,1.25,0,0,0,2.5,0V16.5H32Z"/></svg>