<svg id="Layer_1" data-name="Layer 1" xmlns="http://www.w3.org/2000/svg" viewBox="0 0 50 50"><title>lenette-icons_ol</title><path d="M45.35,16.24h-11V9.35a9.35,9.35,0,0,0-18.7,0v6.89h-11a1.26,1.26,0,0,0-1.26,1.27l4,28.36A4.13,4.13,0,0,0,11.52,50h27a4.13,4.13,0,0,0,4.13-4.13l4-28.36A1.26,1.26,0,0,0,45.35,16.24ZM18.17,9.35a6.83,6.83,0,0,1,13.66,0v6.89H18.17ZM40.08,45.87a1.6,1.6,0,0,1-1.6,1.6h-27a1.6,1.6,0,0,1-1.6-1.6l-4-27.1h9.73V25.6a1.26,1.26,0,1,0,2.52,0V18.77H31.83V25.6a1.26,1.26,0,0,0,2.52,0V18.77h9.73Z"/></svg>