<svg id="Layer_1" data-name="Layer 1" xmlns="http://www.w3.org/2000/svg" viewBox="0 0 50 50"><title>lenette-icons_ol</title><path d="M44.53,50H5.47a1.23,1.23,0,0,1-.9-.39,1.27,1.27,0,0,1-.33-.93c0-.39.74-9.58,5.93-13.9a20.91,20.91,0,0,1,14.38-4.73h.9a20.91,20.91,0,0,1,14.38,4.73c5.19,4.32,5.9,13.51,5.93,13.9a1.27,1.27,0,0,1-.33.93A1.23,1.23,0,0,1,44.53,50ZM6.86,47.54H43.14c-.38-2.54-1.56-8.09-4.89-10.87a18.32,18.32,0,0,0-12.76-4.15h-1a18.33,18.33,0,0,0-12.76,4.15C8.41,39.45,7.23,45,6.86,47.54Z"/><path d="M23,20H15.9a1.23,1.23,0,0,1-1.23-1.23V11.74a1.23,1.23,0,0,1,1.23-1.23H23a1.23,1.23,0,0,1,1.23,1.23v7.07A1.23,1.23,0,0,1,23,20Zm-5.84-2.46h4.61V13H17.13Z"/><path d="M36.09,10.76a1.22,1.22,0,0,1-1.21-1c-.85-5-4-7.28-9.88-7.28s-9,2.32-9.88,7.28a1.23,1.23,0,0,1-2.43-.41C13.74,3.14,17.88,0,25,0S36.26,3.14,37.31,9.33a1.24,1.24,0,0,1-1,1.42Z"/><path d="M25,30.3h0c-4.57,0-10.33-3.29-11.33-8a1.23,1.23,0,1,1,2.41-.5c.79,3.76,5.73,6.07,8.92,6.07h0c3.2,0,8.14-2.31,8.93-6.07a1.23,1.23,0,1,1,2.41.5C35.35,27,29.59,30.3,25,30.3Z"/><path d="M34.1,20H27a1.23,1.23,0,0,1-1.23-1.23V11.74A1.23,1.23,0,0,1,27,10.51H34.1a1.23,1.23,0,0,1,1.23,1.23v7.07A1.23,1.23,0,0,1,34.1,20Zm-5.84-2.46h4.61V13H28.26Z"/></svg>