<svg id="Layer_1" data-name="Layer 1" xmlns="http://www.w3.org/2000/svg" viewBox="0 0 37.98 50.73"><title>lenette-icons_ol</title><path d="M37.85,38.38c-.13-.26-1.38-2.6-6.11-5.47A24.15,24.15,0,0,0,23,29.79a10.46,10.46,0,0,0,6.14-7.22,1.26,1.26,0,0,0-1-1.46,1.24,1.24,0,0,0-1.45,1c-.69,3.75-4.87,6.06-7.64,6.12S12,25.87,11.35,22.12a1.25,1.25,0,1,0-2.46.45A10.41,10.41,0,0,0,15,29.79a24.15,24.15,0,0,0-8.79,3.12c-4.73,2.87-6,5.21-6.11,5.47a1.17,1.17,0,0,0-.13.55V49.48a1.25,1.25,0,0,0,1.25,1.25H36.73A1.25,1.25,0,0,0,38,49.48V38.93A1.31,1.31,0,0,0,37.85,38.38Zm-2.37,9.85H2.5V39.28a16.4,16.4,0,0,1,5-4.23A22.29,22.29,0,0,1,19,32a22.29,22.29,0,0,1,11.45,3.08,16.41,16.41,0,0,1,5,4.23Z"/><path d="M8.8,9.7l.23,0a1.24,1.24,0,0,0,1.22-1A8.78,8.78,0,0,1,19,2.5a9.48,9.48,0,0,1,8.73,6.19,1.25,1.25,0,0,0,1.45,1,1.26,1.26,0,0,0,1-1.46C29.74,5.82,25.89,0,19,0A11.16,11.16,0,0,0,7.8,8.25,1.23,1.23,0,0,0,8.8,9.7Z"/><path d="M9.9,10.66a1.25,1.25,0,0,0-1.25,1.25v7.17A1.25,1.25,0,0,0,9.9,20.33h7.17a1.25,1.25,0,0,0,1.25-1.25V11.91a1.25,1.25,0,0,0-1.25-1.25Zm5.92,7.17H11.15V13.16h4.67Z"/><path d="M28.08,10.66H20.9a1.25,1.25,0,0,0-1.25,1.25v7.17a1.25,1.25,0,0,0,1.25,1.25h7.18a1.25,1.25,0,0,0,1.25-1.25V11.91A1.25,1.25,0,0,0,28.08,10.66Zm-1.25,7.17H22.15V13.16h4.68Z"/></svg>