<svg id="Capa_1" enable-background="new 0 0 524.235 524.235" height="512" viewBox="0 0 524.235 524.235" width="512" xmlns="http://www.w3.org/2000/svg"><path d="m458.21 503.885-32.765-131.059c-1.824-7.295-8.367-12.415-15.886-12.415h-54.984c36.468-52.435 71.367-121.962 71.367-196.588-.001-90.327-73.498-163.823-163.825-163.823s-163.823 73.496-163.823 163.823c0 74.626 34.898 144.153 71.367 196.588h-54.984c-7.519 0-14.063 5.12-15.886 12.415l-32.766 131.059c-1.232 4.896-.128 10.079 2.976 14.047 3.104 3.984 7.871 6.303 12.911 6.303h360.412c5.039 0 9.807-2.32 12.911-6.303 3.103-3.968 4.207-9.151 2.975-14.047zm-196.092-471.12c72.265 0 131.059 58.794 131.059 131.059 0 115.316-97.846 222.698-131.075 255.83-33.229-33.101-131.043-140.29-131.043-255.83 0-72.265 58.794-131.059 131.059-131.059zm-159.216 458.706 24.574-98.294h66.767c29.231 36.248 54.482 59.156 56.996 61.386 3.104 2.768 6.991 4.144 10.879 4.144s7.775-1.376 10.879-4.144c2.514-2.23 27.765-25.137 56.996-61.386h66.767l24.574 98.294c-.001 0-318.433 0-318.432 0z"/><path d="m327.648 163.824c0-36.14-29.389-65.529-65.529-65.529s-65.529 29.389-65.529 65.529 29.389 65.529 65.529 65.529 65.529-29.389 65.529-65.529zm-98.294 0c0-18.062 14.702-32.765 32.765-32.765s32.765 14.702 32.765 32.765-14.702 32.765-32.765 32.765-32.765-14.703-32.765-32.765z"/></svg>